<svg version="1.1" id="Layer_1" xmlns="http://www.w3.org/2000/svg" xmlns:xlink="http://www.w3.org/1999/xlink" x="0px" y="0px"
	 width="100%" viewBox="0 0 224 224" enable-background="new 0 0 224 224" xml:space="preserve">
<path fill="#000000" opacity="1.000000" stroke="none" 
	d="
M135.399994,225.000000 
	C136.586304,213.852783 135.628723,202.749176 134.141388,191.698318 
	C133.691910,188.358841 134.352966,184.628326 131.597488,181.414871 
	C126.477150,182.506699 122.069153,185.346863 118.296638,188.662491 
	C107.423874,198.218445 94.521011,198.868744 81.157181,198.086456 
	C80.746506,198.062408 80.358345,197.653610 79.204269,196.989487 
	C92.509079,193.554733 103.211121,186.289413 115.385330,179.677292 
	C96.670189,179.931992 78.399529,183.855927 62.697231,171.570908 
	C73.936668,173.195496 85.107704,173.448761 97.475105,171.229462 
	C89.461906,167.081116 82.151276,163.725891 75.383293,159.391861 
	C68.765457,155.153992 62.375111,150.639557 56.899868,144.995407 
	C51.128139,139.045624 46.996288,132.333832 49.152187,123.507423 
	C49.658604,121.434120 48.629314,120.405884 47.273258,119.334969 
	C44.529003,117.167747 41.709167,115.084320 39.087494,112.776619 
	C35.265331,109.412224 31.410658,105.649529 33.224255,100.015083 
	C34.987125,94.538239 40.034039,93.819206 45.745602,93.854660 
	C41.794827,85.370186 38.675098,77.036064 38.195194,67.952011 
	C37.875248,61.895741 38.846069,56.039768 40.366280,50.250397 
	C41.250507,46.883049 43.346802,46.494488 45.942547,48.591846 
	C47.736969,50.041740 49.419956,51.629543 51.625488,53.572098 
	C54.890602,49.304775 56.381466,44.627060 57.789719,39.952534 
	C60.005398,32.597858 62.063240,31.981968 67.909012,37.142086 
	C72.285606,41.005356 75.691772,45.685631 79.562073,51.688171 
	C78.511345,47.003204 78.132141,43.634838 80.265877,40.506737 
	C80.667435,39.918041 80.574867,38.894814 80.498215,38.092365 
	C79.655716,29.273350 84.447380,24.347847 93.236237,25.050135 
	C94.046326,25.114868 94.853813,25.212063 95.518913,25.279602 
	C97.271835,23.802366 96.659096,22.009108 96.625275,20.451973 
	C96.520676,15.636489 98.199722,11.843518 102.862091,10.130473 
	C107.592873,8.392291 111.291130,10.412959 114.177345,14.202228 
	C120.354500,22.312105 125.702515,30.916857 129.694885,40.326927 
	C130.119476,41.327702 130.615997,42.297951 131.271622,43.198837 
	C130.408752,37.939335 127.919823,33.146557 127.408470,27.808960 
	C126.562126,18.974621 132.639618,13.406564 141.276840,15.182162 
	C146.540436,16.264227 151.466476,18.260427 156.279755,20.543776 
	C159.091537,21.877632 161.281174,21.853951 164.021637,19.803257 
	C172.674423,13.328358 181.611328,16.910570 184.153976,27.299364 
	C187.571808,41.263966 187.146820,54.972927 182.279282,68.522987 
	C181.832779,69.765938 181.223099,70.994713 181.612366,72.388741 
	C185.061493,84.740379 182.306198,96.824402 179.921036,108.890343 
	C176.283813,127.290047 169.062073,144.139816 157.691650,159.138290 
	C157.209900,159.773773 156.833252,160.488937 156.025803,161.775314 
	C167.397964,162.506546 178.499756,157.413986 190.218353,162.665588 
	C186.332092,165.073013 183.181488,163.394913 180.270660,163.633789 
	C168.287903,164.617249 158.553650,170.196884 148.924454,176.769943 
	C143.460388,180.499802 141.397125,184.048279 143.163681,190.846237 
	C145.973175,201.657578 145.961609,212.912598 145.981445,224.536285 
	C144.933334,225.000000 143.866653,225.000000 142.295929,224.540710 
	C142.043243,210.333542 141.275894,196.698792 137.395020,183.402420 
	C139.323853,197.220840 140.511215,211.054535 139.000000,225.000000 
	C137.933334,225.000000 136.866653,225.000000 135.399994,225.000000 
M129.363739,149.102020 
	C128.588272,146.517059 127.296471,144.032425 128.002274,141.119476 
	C132.565506,150.806076 134.744019,161.194733 136.816864,171.715530 
	C138.219788,170.959152 138.454514,169.774124 138.570602,168.683075 
	C140.413391,151.360779 136.974014,135.611557 124.917992,122.340706 
	C122.535385,119.718010 120.531403,118.661064 117.408440,121.266785 
	C114.745010,123.489098 111.387093,123.803192 107.951309,123.533203 
	C103.752617,123.203270 99.841499,121.793152 95.848709,120.654861 
	C90.635132,119.168541 85.421349,118.406677 80.302734,121.059418 
	C74.032738,124.308868 72.121635,130.147247 75.878929,136.078171 
	C80.239326,142.961121 84.920189,149.630356 90.546722,155.611588 
	C97.258339,162.746338 105.028656,168.109695 115.119743,171.599838 
	C105.949112,161.442276 96.113884,152.931168 90.059349,141.352036 
	C95.953621,147.198944 101.290588,153.530670 106.990723,159.516586 
	C112.664902,165.475250 118.236221,171.684494 126.160011,174.937271 
	C121.485336,162.968140 113.822258,152.766739 107.782623,141.086243 
	C110.698433,141.421738 111.151840,143.232224 112.011383,144.548813 
	C117.928223,153.611710 123.365425,162.959137 128.532455,172.468689 
	C129.494293,174.238876 130.122620,177.149292 133.017975,175.969681 
	C135.629044,174.905899 134.738968,172.266388 134.296875,170.232819 
	C132.816422,163.423019 131.181183,156.646835 129.363739,149.102020 
M153.634506,155.008011 
	C158.062469,141.932816 158.517395,128.167023 160.536270,114.652557 
	C162.042587,126.887131 159.918732,138.786224 157.754181,150.722321 
	C167.823303,132.722427 165.682144,112.130486 169.989578,92.883110 
	C170.631134,106.568619 168.911102,120.036926 166.780945,133.862381 
	C167.241348,133.190384 167.548691,132.837479 167.751312,132.432205 
	C174.717819,118.497192 177.511215,103.527786 178.627060,88.160759 
	C178.978439,83.321823 178.544128,78.500969 177.531845,73.758202 
	C176.058304,66.854370 172.629639,64.059425 165.764908,64.295700 
	C161.901733,64.428665 158.165573,64.258926 153.814590,61.084923 
	C143.167007,96.435654 144.018234,132.096802 142.747482,168.297714 
	C147.050491,164.127640 150.768219,160.399811 153.634506,155.008011 
M64.548950,77.017242 
	C73.244865,91.442963 82.965515,104.986107 96.813301,115.148315 
	C98.051041,113.383644 95.352631,112.237518 96.941818,110.618500 
	C99.938080,112.305954 100.237740,118.015800 105.354042,116.721252 
	C105.354042,116.206688 105.464584,115.828232 105.338303,115.562172 
	C95.351776,94.523155 85.330345,73.496719 74.072533,53.100159 
	C71.623352,48.662792 68.587708,44.455532 63.654049,41.508057 
	C62.030792,45.288372 60.715290,48.843731 59.017860,52.206295 
	C55.050797,60.064926 53.210365,60.554920 45.669491,56.264828 
	C45.457504,56.144230 45.064487,56.341824 44.531441,56.426846 
	C41.144749,70.022141 44.881672,82.202835 51.700092,93.964020 
	C57.013226,103.128716 67.046509,107.064598 73.758919,114.643135 
	C74.693687,115.698509 76.240616,115.114616 76.941078,113.588753 
	C75.780891,110.673988 72.474564,109.288338 71.807671,105.809288 
	C76.802269,110.722870 81.559227,116.010963 89.843559,112.960442 
	C83.689957,106.105545 77.232712,99.659470 71.920540,92.224808 
	C63.331043,80.203346 59.319336,72.787582 59.528133,68.720253 
	C61.854130,70.891502 62.486820,73.970955 64.548950,77.017242 
M98.298019,80.306099 
	C105.245361,78.609123 106.499252,76.549309 103.348618,70.393089 
	C101.837013,67.439484 100.604385,64.326027 99.454742,61.207790 
	C97.035706,54.646538 94.430290,48.128189 92.871872,40.606354 
	C95.732239,42.065376 95.775955,44.248955 96.402733,46.033230 
	C99.823013,55.769897 103.541435,65.385490 107.862534,74.760170 
	C108.654305,76.477936 109.112251,79.248466 111.788727,78.181015 
	C115.048882,76.880768 112.730843,74.538231 112.027870,72.755081 
	C108.856758,64.711166 105.549133,56.721165 102.347824,48.688965 
	C101.840179,47.415276 100.866287,46.056602 102.907082,43.642345 
	C111.104393,67.308495 122.754204,88.731461 132.345932,111.109467 
	C130.014236,102.949966 127.385849,94.915497 124.630547,86.924797 
	C123.244789,82.905922 122.626305,78.522293 118.811089,75.637512 
	C117.290154,74.487488 116.752457,72.076904 117.772125,70.586449 
	C120.210342,67.022522 118.481506,63.980473 117.269783,60.804482 
	C114.897781,54.587276 112.402092,48.416367 110.105446,42.171921 
	C109.529617,40.606277 107.952545,39.049503 109.350365,37.041256 
	C111.204735,38.048466 111.516190,39.978004 112.182465,41.591766 
	C114.975479,48.356606 117.674232,55.160736 120.360992,61.968834 
	C121.226418,64.161781 121.835724,66.591087 124.924820,66.344460 
	C126.221519,66.240929 131.531540,59.744484 131.261948,58.662563 
	C127.289154,42.718754 120.054115,28.429892 109.163307,16.108419 
	C106.462532,13.052843 102.622490,14.209916 101.559799,18.178940 
	C101.142807,19.736338 101.192482,21.508106 101.410423,23.131113 
	C102.552284,31.634563 102.594742,31.628862 94.505013,30.338638 
	C87.012878,29.143724 84.842400,31.218245 85.623474,38.795502 
	C85.707108,39.606846 86.007874,40.725880 85.609665,41.205833 
	C81.569237,46.075699 84.498886,51.029190 85.362579,55.904575 
	C87.092148,65.667526 89.576485,75.180672 95.339470,83.628769 
	C96.278778,82.447250 96.991867,81.550301 98.298019,80.306099 
M150.032913,25.572241 
	C149.264984,25.249895 148.520798,24.842918 147.725098,24.619486 
	C143.746231,23.502224 139.845978,19.521284 135.641037,22.797775 
	C131.455582,26.059099 133.006073,31.258331 133.555481,35.497002 
	C136.101181,55.137550 138.798660,74.743828 138.345688,94.623444 
	C138.273911,97.773399 139.718353,100.681747 139.758102,103.875267 
	C142.296982,83.031746 149.552399,63.224815 150.992462,42.317036 
	C153.223038,47.501781 151.025818,52.525471 151.289795,58.073471 
	C153.348221,56.123867 155.197174,53.785542 157.988571,56.154579 
	C159.930511,50.418594 159.426132,44.703327 160.475647,39.201160 
	C161.466125,44.690845 161.779755,50.136688 160.811905,55.542370 
	C160.403320,57.824371 160.206299,59.819389 163.185028,59.702667 
	C168.189651,59.506557 173.074280,59.622856 177.253540,62.831001 
	C180.812714,55.454849 182.213699,34.449066 179.885849,27.830109 
	C178.116943,22.800434 170.688705,21.294798 167.876266,26.001667 
	C164.583527,31.512375 161.131454,30.690928 156.705734,28.425165 
	C154.784241,27.441442 152.720703,26.735172 150.032913,25.572241 
M60.277172,140.213974 
	C68.180435,148.402313 77.175278,155.055054 87.516243,159.839981 
	C82.933769,154.493774 78.522026,148.967255 73.217064,144.501938 
	C68.015976,140.124054 61.654095,137.121613 58.104599,130.702744 
	C60.976421,132.752197 63.848240,134.801651 67.808411,137.627808 
	C65.368912,133.132919 64.295036,129.629211 65.873177,125.892830 
	C66.641418,124.073952 65.386002,123.180435 64.341362,122.081833 
	C63.141136,120.819618 61.384567,119.946449 61.043781,117.726761 
	C63.929653,117.642227 64.681000,121.239609 67.416069,121.136757 
	C68.966980,119.780869 70.808113,118.158974 68.410530,116.322487 
	C60.752052,110.456337 53.174500,104.441689 44.474316,100.095062 
	C42.338123,99.027817 40.464931,99.519211 39.121181,101.234062 
	C37.582779,103.197311 39.242207,104.676132 40.470375,105.970154 
	C43.920238,109.604988 47.772087,112.789627 51.828335,115.729630 
	C54.289253,117.513313 56.177235,119.877251 55.092274,122.941696 
	C52.677124,129.763245 55.312443,134.926285 60.277172,140.213974 
M106.188820,91.573799 
	C108.296745,97.577072 111.437065,103.080597 114.512276,108.608521 
	C115.420273,110.240723 116.257751,112.349319 119.857445,110.975761 
	C114.459633,102.762360 110.640648,94.034431 105.739822,84.763550 
	C104.084877,88.058945 105.498253,89.391014 106.188820,91.573799 
M100.605545,192.072006 
	C99.292274,192.694778 97.978996,193.317551 95.806030,194.347992 
	C107.782021,193.309738 114.970436,185.464752 124.601364,179.221512 
	C114.645523,181.344910 108.619095,187.805130 100.605545,192.072006 
M104.540741,173.746384 
	C95.735474,173.731262 87.260254,176.854492 77.322464,175.969635 
	C83.981262,178.333038 89.596367,176.906250 95.163177,176.614517 
	C100.790497,176.319595 106.338577,174.955750 112.069107,174.752258 
	C109.829170,174.401596 107.589233,174.050934 104.540741,173.746384 
M129.177628,82.573280 
	C130.600998,86.960777 132.024368,91.348274 133.447754,95.735771 
	C132.109497,88.057320 132.217880,80.054588 128.610977,72.375999 
	C124.888725,76.244446 128.015106,78.976753 129.177628,82.573280 
M119.060135,97.499634 
	C120.340027,99.807327 121.619919,102.115021 122.899811,104.422714 
	C123.166199,104.263664 123.432594,104.104614 123.698990,103.945564 
	C120.780861,98.182793 117.862732,92.420013 114.944611,86.657242 
	C114.530907,86.875328 114.117203,87.093414 113.703499,87.311501 
	C115.373726,90.492470 117.043961,93.673439 119.060135,97.499634 
M112.587585,116.073448 
	C113.593788,111.794998 109.542046,110.926918 107.484581,108.687988 
	C109.496811,110.941772 108.453445,114.967079 112.587585,116.073448 
M157.129868,166.600647 
	C157.481018,166.317383 157.832169,166.034119 158.183319,165.750854 
	C158.047455,165.672501 157.891510,165.503815 157.778641,165.528900 
	C154.102478,166.346054 150.406601,167.140762 148.257385,171.151367 
	C151.189941,169.601562 153.884415,168.177582 157.129868,166.600647 
z"/>
<path fill="#000000" opacity="1.000000" stroke="none" 
	d="
M83.487305,92.188019 
	C79.032913,85.264893 74.527786,78.748886 72.386192,70.854034 
	C77.183670,78.663605 81.981140,86.473183 87.180412,94.936836 
	C84.768578,94.513374 84.505417,93.184639 83.487305,92.188019 
z"/>
<path fill="#000000" opacity="1.000000" stroke="none" 
	d="
M57.753235,88.080566 
	C55.969025,84.441345 54.333042,81.139206 52.697056,77.837059 
	C53.183952,77.601456 53.670849,77.365860 54.157742,77.130257 
	C57.948135,83.816612 61.738529,90.502960 65.528923,97.189316 
	C61.258881,95.498238 60.261925,91.437424 57.753235,88.080566 
z"/>
<path fill="#000000" opacity="1.000000" stroke="none" 
	d="
M140.650970,60.031891 
	C140.839630,56.572460 140.958191,53.596203 141.237106,50.635059 
	C141.444244,48.435898 141.859451,46.256340 142.693634,44.126263 
	C143.598526,53.781666 141.649368,63.296982 141.809601,72.906120 
	C140.012314,68.864876 140.936142,64.644577 140.650970,60.031891 
z"/>
</svg>